HIERARCHY
ROOT root
{
	OFFSET	0	13.1	24.9
	CHANNELS 6  Xposition Yposition Zposition Xrotation Yrotation Zrotation
	JOINT spine_1
	{
		OFFSET	0	9.99999	0
		CHANNELS 3  Xrotation Yrotation Zrotation
		JOINT spine_2
		{
			OFFSET	0	112	-10
			CHANNELS 3  Xrotation Yrotation Zrotation
			JOINT spine_3
			{
				OFFSET	0	206.5	19.3
				CHANNELS 3  Xrotation Yrotation Zrotation
				JOINT spine_4
				{
					OFFSET	0	110.4	14.6
					CHANNELS 3  Xrotation Yrotation Zrotation
					JOINT neck_1
					{
						OFFSET	0	71.8	-50.3
						CHANNELS 3  Xrotation Yrotation Zrotation
						JOINT neck_2
						{
							OFFSET	0	86.2	-25.8
							CHANNELS 3  Xrotation Yrotation Zrotation
							JOINT head_ee
							{
								OFFSET	0	179.8	-8.7
								CHANNELS 3  Xrotation Yrotation Zrotation
								End Site
								{
									OFFSET	1	0	0
								}
							}
						}
					}
					JOINT left_clavicle
					{
						OFFSET	-43.2	22.4	-70.8
						CHANNELS 3  Xrotation Yrotation Zrotation
						JOINT left_shoulder
						{
							OFFSET	-93.9	-5.79999	48.7
							CHANNELS 3  Xrotation Yrotation Zrotation
							JOINT left_elbow
							{
								OFFSET	-291.4	-30.8	15.2
								CHANNELS 3  Xrotation Yrotation Zrotation
								JOINT left_lowarm_twist
								{
									OFFSET	-110.7	-3.89999	13.6
									CHANNELS 3  Xrotation Yrotation Zrotation
									JOINT left_hand
									{
										OFFSET	-110.7	-3.89999	13.6
										CHANNELS 3  Xrotation Yrotation Zrotation
										JOINT left_ee
										{
											OFFSET	-80.8	-5.10001	12.1
											CHANNELS 3  Xrotation Yrotation Zrotation
											End Site
											{
												OFFSET	1	0	0
											}
										}
									}
								}
							}
						}
					}
					JOINT right_clavicle
					{
						OFFSET	43.2	22.4	-70.8
						CHANNELS 3  Xrotation Yrotation Zrotation
						JOINT right_shoulder
						{
							OFFSET	93.9	-5.79999	48.7
							CHANNELS 3  Xrotation Yrotation Zrotation
							JOINT right_elbow
							{
								OFFSET	291.4	-30.8	15.2
								CHANNELS 3  Xrotation Yrotation Zrotation
								JOINT right_lowarm_twist
								{
									OFFSET	110.7	-3.89999	13.6
									CHANNELS 3  Xrotation Yrotation Zrotation
									JOINT right_hand
									{
										OFFSET	110.7	-3.89999	13.6
										CHANNELS 3  Xrotation Yrotation Zrotation
										JOINT right_ee
										{
											OFFSET	80.8	-5.10001	12.1
											CHANNELS 3  Xrotation Yrotation Zrotation
											End Site
											{
												OFFSET	1	0	0
											}
										}
									}
								}
							}
						}
					}
				}
			}
		}
	}
	JOINT left_hip
	{
		OFFSET	-82.8	-127.5	0.300001
		CHANNELS 3  Xrotation Yrotation Zrotation
		JOINT left_knee
		{
			OFFSET	-28.2	-396.7	2.2
			CHANNELS 3  Xrotation Yrotation Zrotation
			JOINT left_ankle
			{
				OFFSET	-11.7	-411.3	35.4
				CHANNELS 3  Xrotation Yrotation Zrotation
				JOINT left_toes
				{
					OFFSET	0	-60	-88.6
					CHANNELS 3  Xrotation Yrotation Zrotation
					JOINT left_foot_ee
					{
						OFFSET	-22.5	-16.5	-42.2
						CHANNELS 3  Xrotation Yrotation Zrotation
						End Site
						{
							OFFSET	1	0	0
						}
					}
				}
			}
		}
	}
	JOINT right_hip
	{
		OFFSET	82.8	-127.5	0.300001
		CHANNELS 3  Xrotation Yrotation Zrotation
		JOINT right_knee
		{
			OFFSET	28.2	-396.7	2.2
			CHANNELS 3  Xrotation Yrotation Zrotation
			JOINT right_ankle
			{
				OFFSET	11.7	-411.3	35.4
				CHANNELS 3  Xrotation Yrotation Zrotation
				JOINT right_toes
				{
					OFFSET	0	-60	-88.6
					CHANNELS 3  Xrotation Yrotation Zrotation
					JOINT right_foot_ee
					{
						OFFSET	22.5	-16.5	-42.2
						CHANNELS 3  Xrotation Yrotation Zrotation
						End Site
						{
							OFFSET	1	0	0
						}
					}
				}
			}
		}
	}
}
MOTION
Frames: 5
Frame Time: 0.02
2084.22 737.868 -1589.67 3.89271 56.9363 -9.12043 -0.457919 0.733907 3.53615 -0.451106 0.507553 3.57561 -0.414573 -0.28138 3.60045 -0.432542 0.290396 3.59973 -5.69885 19.4091 0.476503 -5.51332 35.576 4.07775 -0.0 0.0 -0.0 -1.68078 14.6357 -0.987071 -11.9797 -13.8593 56.462 1.77392 -41.3035 0.668648 -59.1894 -5.18212 5.07523 -3.66072 12.9116 -18.0388 -0.0 0.0 -0.0 13.4131 25.6829 -26.6717 -11.0127 26.0945 -64.5387 0.314461 8.85428 -0.0243464 44.2924 0.591148 5.48829 1.57385 -12.5699 -15.2945 0.0 0.0 0.0 -11.7865 34.7201 2.18413 -8.23824 0.250512 1.23842 18.3759 2.93013 -2.53459 -15.3892 0.0 0.0 -0.0 0.0 -0.0 2.58003 31.1679 0.491772 -25.5329 -0.189086 -3.88139 19.5465 3.7163 2.72308 -2.14115 0.0 0.0 0.0 0.0 0.0 
2076.18 735.047 -1594.02 5.36114 57.1052 -10.6808 -0.496702 0.775978 3.45906 -0.490217 0.554436 3.50135 -0.451512 -0.221659 3.538 -0.468816 0.339527 3.52865 -6.80355 18.6395 -0.622363 -6.77794 35.1181 3.19556 -0.0 0.0 -0.0 -1.90849 17.0723 -0.954163 -13.7643 -13.2567 55.944 2.07982 -45.849 0.879677 -59.8315 -5.2618 5.0959 -4.08539 12.4766 -21.1607 -0.0 0.0 -0.0 13.4288 25.8636 -26.687 -9.81362 26.4129 -64.4101 0.354875 9.97061 -0.0309559 44.9438 0.631066 5.56146 1.52241 -13.4879 -15.2742 0.0 0.0 0.0 -9.56994 34.0269 1.04421 -8.02244 0.246233 1.20558 15.5319 1.9604 -2.17227 -14.8542 0.0 0.0 -0.0 0.0 -0.0 -1.05903 31.1391 2.26662 -25.4672 -0.190828 -3.87145 21.7703 5.73898 3.02138 -0.51465 0.0 0.0 0.0 0.0 0.0 
2071.47 728.461 -1594.17 6.01971 56.8689 -11.5427 -0.528354 0.947358 3.50583 -0.521807 0.722498 3.55891 -0.47164 -0.0711294 3.63072 -0.48968 0.502791 3.59649 -7.55897 18.1612 -1.3028 -7.63705 34.8105 2.67084 -0.0 0.0 -0.0 -2.04213 18.8933 -0.854249 -15.0615 -12.8409 55.7088 2.34246 -49.2387 1.07354 -60.2809 -5.3177 5.10984 -4.38973 12.1553 -23.4595 -0.0 0.0 -0.0 13.4535 26.1246 -26.7129 -8.68663 26.7095 -64.3293 0.390339 10.944 -0.0373931 45.4003 0.659536 5.61247 1.48475 -14.1299 -15.2486 0.0 0.0 0.0 -8.03454 33.5193 0.217719 -10.303 0.285189 1.55333 14.4009 1.64636 -2.02468 -14.2815 0.0 0.0 -0.0 0.0 -0.0 -3.93746 30.1661 3.7109 -23.8196 -0.23077 -3.62178 23.4197 6.58634 3.23303 0.467716 -0.0 -0.0 0.0 0.0 0.0 
2061.51 728.046 -1596.04 5.84667 56.3126 -11.0183 -0.478572 1.07588 3.50598 -0.472136 0.850755 3.56723 -0.413776 0.0561972 3.66671 -0.431974 0.634198 3.61196 -7.9613 18.0155 -1.31672 -8.09781 34.5993 2.76096 -0.0 0.0 -0.0 -2.08465 20.7087 -0.608736 -16.7801 -12.4019 55.4213 2.54958 -51.6202 1.23322 -60.1262 -5.29845 5.10509 -4.59332 11.9393 -25.0274 -0.0 0.0 -0.0 13.5706 26.3971 -26.9519 -6.51017 27.285 -64.2452 0.440418 12.3076 -0.0474855 45.7104 0.67911 5.64699 1.36797 -15.8081 -15.0633 0.0 0.0 0.0 -6.44654 33.1996 -0.361832 -15.5648 0.322088 2.35954 19.429 1.65911 -2.67198 -14.5903 0.0 0.0 -0.0 0.0 -0.0 -5.74501 28.0472 4.43385 -19.5296 -0.300939 -2.96738 25.7091 8.85026 3.53948 -1.2736 0.0 0.0 0.0 0.0 0.0 
2056.67 729.93 -1595.71 5.4481 55.096 -10.6726 -0.452806 1.23638 3.54398 -0.446385 1.00851 3.61534 -0.377068 0.202489 3.74774 -0.395791 0.791432 3.66892 -8.12895 17.9393 -1.35139 -8.2888 34.5014 2.76569 -0.0 0.0 -0.0 -2.12768 22.5533 -0.354006 -18.7716 -11.882 55.5517 2.65588 -52.7529 1.31721 -59.9998 -5.28272 5.10117 -4.72133 11.7721 -26.0473 -0.0 0.0 -0.0 13.6845 26.534 -27.1997 -5.26072 27.6481 -64.2417 0.475235 13.2474 -0.0551861 45.9275 0.692924 5.6711 1.29007 -16.9145 -14.9371 0.0 0.0 0.0 -3.63616 32.7302 -2.00184 -19.2683 0.303627 2.92737 22.9724 1.65028 -3.105 -14.8062 0.0 0.0 -0.0 0.0 -0.0 -7.41496 26.4998 5.19586 -16.5554 -0.320747 -2.51152 27.3758 10.4385 3.76186 -2.49034 0.0 0.0 0.0 0.0 0.0 
